<?xml version="1.0" encoding="utf-8"?>
<!-- Generator: Adobe Illustrator 20.1.0, SVG Export Plug-In . SVG Version: 6.00 Build 0)  -->
<!DOCTYPE svg PUBLIC "-//W3C//DTD SVG 1.1//EN" "http://www.w3.org/Graphics/SVG/1.1/DTD/svg11.dtd">
<svg version="1.1" id="Capa_1" xmlns="http://www.w3.org/2000/svg" xmlns:xlink="http://www.w3.org/1999/xlink" x="0px" y="0px"
	 viewBox="0 0 55.2 30" enable-background="new 0 0 55.2 30" xml:space="preserve">
<g>
	<path fill="#FEE5AD" d="M1.7,23.7c0,0,7.1-7.8,13.1-2.9c5.7,4.7,7.5,7.1,13.6,7.1s10.4-5.7,10.8-7.1c0.7-2.2-1.1-4.8-3.3-3.2
		c-3,2.2-8.1,6.4-16.8,0.1C11.2,11.9,2.4,20.2,1.7,23.7z"/>
	<path fill="#FEE5AD" d="M53.5,6.2c0,0-7.1,7.8-13.1,2.9C34.6,4.5,32.8,2,26.8,2S16.4,7.6,15.9,9.1c-0.7,2.2,1.1,4.8,3.3,3.2
		c3-2.2,8.1-6.4,16.8-0.1C44,18,52.8,9.7,53.5,6.2z"/>
</g>
</svg>
