<?xml version="1.0" encoding="utf-8"?>
<!-- Generator: Adobe Illustrator 20.1.0, SVG Export Plug-In . SVG Version: 6.00 Build 0)  -->
<!DOCTYPE svg PUBLIC "-//W3C//DTD SVG 1.1//EN" "http://www.w3.org/Graphics/SVG/1.1/DTD/svg11.dtd">
<svg version="1.1" id="Capa_1" xmlns="http://www.w3.org/2000/svg" xmlns:xlink="http://www.w3.org/1999/xlink" x="0px" y="0px"
	 viewBox="0 0 33.8 30" enable-background="new 0 0 33.8 30" xml:space="preserve">
<g>
	<path fill="#FF5D4C" d="M19.7,3.1c0,0-5.7-0.2-6.5,4.6c-0.8,4.8,4.5,8.5,0.7,10c-3.7,1.5-4.6-4.9-1.1-5.5c0,0-3.2-0.6-5.1,2
		s-1.7,7.7,4.4,8.2c6,0.5,8.1-4.7,7.3-8.1C18.8,11.6,14.6,5.9,19.7,3.1z"/>
	<path fill="#FF5D4C" d="M20,4.2c0,0-2.1,1.7-1.1,5.1c0.8,2.6,2.8,4.5,1.4,9.1c-1.5,4.6-5.6,5.2-7.6,5.2c-1.9-0.1-5.6-1.3-6.9-3.2
		s-4.1,5.5-3.9,5.9c0.2,0.3,0.2,0.6,2.2,0.6s16.7,0,16.7,0c1.3,0,1.7-2.7,4.1-2.7c2.2-0.1,3.2,1.6,3.3,2c0.2,0.6,0.4,0.8,1.1,0.8
		s2.6,0,2.6,0L20,4.2z"/>
	<path fill="#FF5D4C" d="M27.4,26.8H23c0,0,0.2-1.8,2.2-1.8S27.4,26.8,27.4,26.8z"/>
</g>
</svg>
