<?xml version="1.0" encoding="utf-8"?>
<!-- Generator: Adobe Illustrator 20.1.0, SVG Export Plug-In . SVG Version: 6.00 Build 0)  -->
<!DOCTYPE svg PUBLIC "-//W3C//DTD SVG 1.1//EN" "http://www.w3.org/Graphics/SVG/1.1/DTD/svg11.dtd">
<svg version="1.1" id="Capa_1" xmlns="http://www.w3.org/2000/svg" xmlns:xlink="http://www.w3.org/1999/xlink" x="0px" y="0px"
	 viewBox="0 0 38.5 33.4" enable-background="new 0 0 38.5 33.4" xml:space="preserve">
<g>
	<g>
		<path fill="#FF5D4C" d="M5.2,25.2l4.3-7.4l4.3,7.4l4.3,7.4l-8.6,0l-8.6,0L5.2,25.2z M14,30.2l-4.5-7.7l-4.4,7.7L14,30.2z"/>
		<path fill="#FF5D4C" d="M15,8.2l4.3-7.4l4.3,7.4l4.3,7.4l-8.6,0l-8.6,0L15,8.2z M23.7,13.3l-4.5-7.7l-4.4,7.7L23.7,13.3z"/>
	</g>
	<g>
		<path fill="#FF5D4C" d="M24.7,25.1l4.3-7.4l4.3,7.4l4.3,7.4l-8.6,0l-8.6,0L24.7,25.1z M33.4,30.1L29,22.4l-4.4,7.7L33.4,30.1z"/>
		<path fill="#FF5D4C" d="M23.7,24.5l-4.3,7.4l-4.3-7.4l-4.3-7.4l8.6,0l8.6,0L23.7,24.5z M15,19.5l4.5,7.7l4.4-7.7L15,19.5z"/>
	</g>
</g>
</svg>
