<?xml version="1.0" encoding="utf-8"?>
<!-- Generator: Adobe Illustrator 20.1.0, SVG Export Plug-In . SVG Version: 6.00 Build 0)  -->
<!DOCTYPE svg PUBLIC "-//W3C//DTD SVG 1.1//EN" "http://www.w3.org/Graphics/SVG/1.1/DTD/svg11.dtd">
<svg version="1.1" id="Capa_1" xmlns="http://www.w3.org/2000/svg" xmlns:xlink="http://www.w3.org/1999/xlink" x="0px" y="0px"
	 viewBox="0 0 41.5 56.9" enable-background="new 0 0 41.5 56.9" xml:space="preserve">
<g>
	<g>
		<path fill="#FFFFFF" d="M28.2,41.6l-4.8-4.9l-2.5-2.5l-2.5,2.5l-4.9,4.8L11,44l2.5,2.5l4.8,4.9l2.5,2.5l2.5-2.5l4.9-4.8l2.5-2.5
			L28.2,41.6z"/>
		<polygon fill="#FFFFFF" points="11.2,26.8 30.7,27 21.1,17.2 		"/>
		<polygon fill="#FFFFFF" points="21.1,11 30.8,20.8 40.8,20.9 26.1,6 21.2,1 16.2,5.9 1.3,20.5 11.3,20.6 		"/>
		<polygon fill="#FFFFFF" points="21,27 30.6,36.9 40.6,37 26,22.1 21.1,17.1 16,22 1.2,36.6 11.1,36.7 		"/>
	</g>
	<g opacity="0.19">
		<path fill="#FFFFFF" d="M28.2,44.5l-4.8-4.9L20.9,37l-2.5,2.5l-4.9,4.8l-2.5,2.5l2.5,2.5l4.8,4.9l2.5,2.5l2.5-2.5l4.9-4.8l2.5-2.5
			L28.2,44.5z"/>
		<polygon fill="#FFFFFF" points="11.2,29.7 30.7,29.8 21,20 		"/>
		<polygon fill="#FFFFFF" points="21.1,13.8 30.8,23.6 40.7,23.7 26.1,8.9 21.2,3.8 16.2,8.8 1.3,23.4 11.3,23.5 		"/>
		<polygon fill="#FFFFFF" points="21,29.9 30.6,39.7 40.6,39.8 26,24.9 21,19.9 16,24.8 1.2,39.4 11.1,39.5 		"/>
	</g>
</g>
</svg>
